<svg xmlns="http://www.w3.org/2000/svg" xmlns:xlink="http://www.w3.org/1999/xlink" width="180" zoomAndPan="magnify" viewBox="0 0 135 43.499998" height="58" preserveAspectRatio="xMidYMid meet" version="1.0"><defs><g/><clipPath id="90a3141ec8"><path d="M 1 0 L 134.230469 0 L 134.230469 43.003906 L 1 43.003906 Z M 1 0 " clip-rule="nonzero"/></clipPath><clipPath id="f34ce81b91"><path d="M 1 0 L 132.972656 0 L 132.972656 43 L 1 43 Z M 1 0 " clip-rule="nonzero"/></clipPath><clipPath id="4825087c07"><rect x="0" width="134" y="0" height="44"/></clipPath></defs><g clip-path="url(#90a3141ec8)"><g transform="matrix(1, 0, 0, 1, 1, 0)"><g clip-path="url(#4825087c07)"><g clip-path="url(#f34ce81b91)"><path fill="#5170ff" d="M 12.628906 8.367188 L 13.886719 6.007812 C 15.203125 3.542969 17.375 1.707031 20.027344 0.878906 C 22.691406 0.0390625 25.492188 0.296875 27.941406 1.585938 C 32.980469 4.265625 34.894531 10.589844 32.183594 15.703125 L 28.921875 21.875 C 27.605469 24.339844 25.429688 26.160156 22.78125 27.003906 C 21.753906 27.324219 20.699219 27.492188 19.65625 27.492188 C 18.003906 27.492188 16.367188 27.09375 14.863281 26.296875 C 14.113281 25.902344 13.839844 24.980469 14.222656 24.230469 C 14.621094 23.480469 15.539062 23.207031 16.289062 23.589844 C 18.003906 24.507812 19.980469 24.675781 21.847656 24.078125 C 23.730469 23.480469 25.277344 22.195312 26.210938 20.433594 L 29.472656 14.261719 C 31.386719 10.648438 30.054688 6.164062 26.503906 4.277344 C 24.789062 3.375 22.8125 3.191406 20.945312 3.789062 C 19.0625 4.386719 17.515625 5.671875 16.582031 7.433594 L 15.324219 9.792969 C 14.925781 10.542969 13.992188 10.816406 13.257812 10.433594 C 12.507812 10.035156 12.230469 9.117188 12.613281 8.367188 Z M 21.464844 32.652344 C 20.714844 32.253906 19.796875 32.546875 19.398438 33.296875 L 18.140625 35.65625 C 17.207031 37.414062 15.660156 38.703125 13.777344 39.300781 C 11.910156 39.894531 9.933594 39.710938 8.21875 38.808594 C 4.667969 36.925781 3.335938 32.453125 5.25 28.824219 L 8.511719 22.652344 C 9.445312 20.894531 10.992188 19.605469 12.875 19.011719 C 14.742188 18.414062 16.71875 18.597656 18.433594 19.5 C 19.183594 19.898438 20.101562 19.605469 20.5 18.855469 C 20.898438 18.105469 20.605469 17.1875 19.855469 16.789062 C 17.40625 15.488281 14.589844 15.242188 11.941406 16.085938 C 9.292969 16.925781 7.101562 18.75 5.800781 21.214844 L 2.539062 27.386719 C -0.171875 32.5 1.726562 38.839844 6.78125 41.503906 C 8.28125 42.300781 9.917969 42.699219 11.574219 42.699219 C 12.613281 42.699219 13.671875 42.53125 14.695312 42.207031 C 17.347656 41.367188 19.535156 39.542969 20.835938 37.078125 L 22.09375 34.71875 C 22.492188 33.96875 22.199219 33.050781 21.449219 32.652344 Z M 117.671875 10.816406 L 37.113281 10.816406 C 36.273438 10.816406 35.582031 11.507812 35.582031 12.347656 C 35.582031 13.191406 36.273438 13.878906 37.113281 13.878906 L 117.671875 13.878906 C 124.472656 13.878906 130.015625 19.40625 130.015625 26.222656 C 130.015625 33.035156 124.488281 38.5625 117.671875 38.5625 L 26.335938 38.5625 C 25.339844 38.5625 24.359375 38.441406 23.410156 38.210938 C 22.582031 38.011719 21.753906 38.519531 21.558594 39.34375 C 21.359375 40.171875 21.863281 41 22.691406 41.199219 C 23.882812 41.488281 25.109375 41.625 26.335938 41.625 L 117.671875 41.625 C 126.15625 41.625 133.078125 34.71875 133.078125 26.222656 C 133.078125 17.722656 126.171875 10.816406 117.671875 10.816406 Z M 117.671875 10.816406 " fill-opacity="1" fill-rule="nonzero"/></g><g fill="#5170ff" fill-opacity="1"><g transform="translate(45.778055, 26.184687)"><g><path d="M 5.90625 -9.15625 L 5.90625 -7.328125 L 2.75 -7.328125 L 2.75 -5.5 L 5.765625 -5.5 L 5.765625 -3.671875 L 2.75 -3.671875 L 2.75 -1.828125 L 5.90625 -1.828125 L 5.90625 0 L 0.671875 0 L 0.671875 -9.15625 Z M 5.90625 -9.15625 "/></g></g></g><g fill="#5170ff" fill-opacity="1"><g transform="translate(52.216257, 26.184687)"><g><path d="M 5.3125 -9.15625 L 9.015625 0 L 6.765625 0 L 6.09375 -1.828125 L 2.609375 -1.828125 L 1.9375 0 L -0.3125 0 L 3.390625 -9.15625 Z M 5.375 -3.65625 L 4.359375 -6.328125 L 4.34375 -6.328125 L 3.3125 -3.65625 Z M 5.375 -3.65625 "/></g></g></g><g fill="#5170ff" fill-opacity="1"><g transform="translate(60.918936, 26.184687)"><g><path d="M 4.03125 -9.3125 C 4.53125 -9.3125 5.015625 -9.238281 5.484375 -9.09375 C 5.960938 -8.957031 6.316406 -8.816406 6.546875 -8.671875 L 6.875 -8.453125 L 6.03125 -6.796875 C 5.96875 -6.835938 5.875 -6.890625 5.75 -6.953125 C 5.632812 -7.023438 5.414062 -7.117188 5.09375 -7.234375 C 4.769531 -7.359375 4.46875 -7.421875 4.1875 -7.421875 C 3.832031 -7.421875 3.5625 -7.347656 3.375 -7.203125 C 3.1875 -7.054688 3.09375 -6.851562 3.09375 -6.59375 C 3.09375 -6.46875 3.132812 -6.351562 3.21875 -6.25 C 3.3125 -6.144531 3.460938 -6.03125 3.671875 -5.90625 C 3.890625 -5.78125 4.082031 -5.679688 4.25 -5.609375 C 4.414062 -5.535156 4.664062 -5.425781 5 -5.28125 C 5.59375 -5.03125 6.097656 -4.6875 6.515625 -4.25 C 6.929688 -3.820312 7.140625 -3.332031 7.140625 -2.78125 C 7.140625 -2.257812 7.046875 -1.800781 6.859375 -1.40625 C 6.671875 -1.019531 6.410156 -0.710938 6.078125 -0.484375 C 5.753906 -0.265625 5.390625 -0.101562 4.984375 0 C 4.585938 0.113281 4.15625 0.171875 3.6875 0.171875 C 3.289062 0.171875 2.898438 0.128906 2.515625 0.046875 C 2.128906 -0.0351562 1.804688 -0.132812 1.546875 -0.25 C 1.296875 -0.375 1.066406 -0.492188 0.859375 -0.609375 C 0.648438 -0.734375 0.5 -0.835938 0.40625 -0.921875 L 0.25 -1.046875 L 1.296875 -2.796875 C 1.390625 -2.722656 1.507812 -2.628906 1.65625 -2.515625 C 1.8125 -2.398438 2.085938 -2.242188 2.484375 -2.046875 C 2.878906 -1.859375 3.226562 -1.765625 3.53125 -1.765625 C 4.414062 -1.765625 4.859375 -2.0625 4.859375 -2.65625 C 4.859375 -2.78125 4.828125 -2.894531 4.765625 -3 C 4.703125 -3.113281 4.585938 -3.222656 4.421875 -3.328125 C 4.265625 -3.441406 4.125 -3.53125 4 -3.59375 C 3.882812 -3.65625 3.6875 -3.75 3.40625 -3.875 C 3.132812 -4.007812 2.929688 -4.109375 2.796875 -4.171875 C 2.242188 -4.441406 1.8125 -4.78125 1.5 -5.1875 C 1.195312 -5.601562 1.046875 -6.046875 1.046875 -6.515625 C 1.046875 -7.335938 1.347656 -8.007812 1.953125 -8.53125 C 2.566406 -9.050781 3.257812 -9.3125 4.03125 -9.3125 Z M 4.03125 -9.3125 "/></g></g></g><g fill="#5170ff" fill-opacity="1"><g transform="translate(68.378377, 26.184687)"><g><path d="M -0.328125 -9.15625 L 2.171875 -9.15625 L 4.078125 -6.21875 L 5.984375 -9.15625 L 8.5 -9.15625 L 5.125 -4.109375 L 5.125 0 L 3.046875 0 L 3.046875 -4.109375 Z M -0.328125 -9.15625 "/></g></g></g><g fill="#5170ff" fill-opacity="1"><g transform="translate(76.548241, 26.184687)"><g><path d="M 2.75 -9.15625 L 2.75 -1.828125 L 5.90625 -1.828125 L 5.90625 0 L 0.671875 0 L 0.671875 -9.15625 Z M 2.75 -9.15625 "/></g></g></g><g fill="#5170ff" fill-opacity="1"><g transform="translate(82.819944, 26.184687)"><g><path d="M 2.75 -9.15625 L 2.75 0 L 0.671875 0 L 0.671875 -9.15625 Z M 2.75 -9.15625 "/></g></g></g><g fill="#5170ff" fill-opacity="1"><g transform="translate(86.238855, 26.184687)"><g><path d="M 2.75 -5.6875 L 2.75 0 L 0.671875 0 L 0.671875 -9.15625 L 2.75 -9.15625 L 6.390625 -3.46875 L 6.40625 -3.46875 L 6.40625 -9.15625 L 8.5 -9.15625 L 8.5 0 L 6.40625 0 L 2.78125 -5.6875 Z M 2.75 -5.6875 "/></g></g></g><g fill="#5170ff" fill-opacity="1"><g transform="translate(95.407748, 26.184687)"><g><path d="M 9 0 L 6.125 0 L 2.75 -3.890625 L 2.75 0 L 0.671875 0 L 0.671875 -9.15625 L 2.75 -9.15625 L 2.75 -5.40625 L 5.890625 -9.15625 L 8.421875 -9.15625 L 4.734375 -4.8125 Z M 9 0 "/></g></g></g><g fill="#000000" fill-opacity="1"><g transform="translate(32.125206, 34.239722)"><g><path d="M 4.265625 -0.578125 C 4.171875 -0.472656 4.039062 -0.367188 3.875 -0.265625 C 3.707031 -0.171875 3.515625 -0.09375 3.296875 -0.03125 C 3.078125 0.03125 2.84375 0.0625 2.59375 0.0625 C 2.164062 0.0625 1.78125 -0.0351562 1.4375 -0.234375 C 1.09375 -0.429688 0.820312 -0.710938 0.625 -1.078125 C 0.425781 -1.453125 0.328125 -1.882812 0.328125 -2.375 C 0.328125 -2.71875 0.382812 -3.035156 0.5 -3.328125 C 0.625 -3.628906 0.796875 -3.882812 1.015625 -4.09375 C 1.234375 -4.3125 1.484375 -4.476562 1.765625 -4.59375 C 2.046875 -4.71875 2.34375 -4.78125 2.65625 -4.78125 C 2.90625 -4.78125 3.140625 -4.738281 3.359375 -4.65625 C 3.585938 -4.582031 3.785156 -4.484375 3.953125 -4.359375 C 4.128906 -4.234375 4.265625 -4.101562 4.359375 -3.96875 L 3.875 -3.453125 C 3.707031 -3.628906 3.519531 -3.773438 3.3125 -3.890625 C 3.113281 -4.003906 2.894531 -4.0625 2.65625 -4.0625 C 2.382812 -4.0625 2.125 -3.988281 1.875 -3.84375 C 1.632812 -3.707031 1.441406 -3.515625 1.296875 -3.265625 C 1.148438 -3.015625 1.078125 -2.71875 1.078125 -2.375 C 1.078125 -1.988281 1.148438 -1.671875 1.296875 -1.421875 C 1.453125 -1.171875 1.65625 -0.984375 1.90625 -0.859375 C 2.15625 -0.734375 2.425781 -0.671875 2.71875 -0.671875 C 2.976562 -0.671875 3.207031 -0.722656 3.40625 -0.828125 C 3.613281 -0.929688 3.78125 -1.050781 3.90625 -1.1875 Z M 4.265625 -0.578125 "/></g></g></g><g fill="#000000" fill-opacity="1"><g transform="translate(36.945068, 34.239722)"><g><path d="M 3.90625 -1.78125 C 3.90625 -1.414062 3.820312 -1.09375 3.65625 -0.8125 C 3.5 -0.539062 3.28125 -0.328125 3 -0.171875 C 2.726562 -0.015625 2.425781 0.0625 2.09375 0.0625 C 1.75 0.0625 1.4375 -0.015625 1.15625 -0.171875 C 0.882812 -0.328125 0.664062 -0.539062 0.5 -0.8125 C 0.34375 -1.09375 0.265625 -1.414062 0.265625 -1.78125 C 0.265625 -2.144531 0.34375 -2.460938 0.5 -2.734375 C 0.664062 -3.015625 0.882812 -3.234375 1.15625 -3.390625 C 1.4375 -3.554688 1.75 -3.640625 2.09375 -3.640625 C 2.425781 -3.640625 2.726562 -3.554688 3 -3.390625 C 3.28125 -3.234375 3.5 -3.015625 3.65625 -2.734375 C 3.820312 -2.460938 3.90625 -2.144531 3.90625 -1.78125 Z M 3.1875 -1.78125 C 3.1875 -2.019531 3.140625 -2.226562 3.046875 -2.40625 C 2.953125 -2.59375 2.820312 -2.738281 2.65625 -2.84375 C 2.488281 -2.945312 2.300781 -3 2.09375 -3 C 1.882812 -3 1.691406 -2.945312 1.515625 -2.84375 C 1.347656 -2.738281 1.210938 -2.59375 1.109375 -2.40625 C 1.015625 -2.226562 0.972656 -2.019531 0.984375 -1.78125 C 0.972656 -1.550781 1.015625 -1.34375 1.109375 -1.15625 C 1.210938 -0.96875 1.347656 -0.820312 1.515625 -0.71875 C 1.691406 -0.613281 1.882812 -0.5625 2.09375 -0.5625 C 2.300781 -0.5625 2.488281 -0.613281 2.65625 -0.71875 C 2.820312 -0.820312 2.953125 -0.96875 3.046875 -1.15625 C 3.140625 -1.34375 3.1875 -1.550781 3.1875 -1.78125 Z M 3.1875 -1.78125 "/></g></g></g><g fill="#000000" fill-opacity="1"><g transform="translate(41.331087, 34.239722)"><g><path d="M 2.359375 -3.640625 C 2.671875 -3.640625 2.914062 -3.570312 3.09375 -3.4375 C 3.269531 -3.300781 3.394531 -3.125 3.46875 -2.90625 C 3.539062 -2.6875 3.578125 -2.441406 3.578125 -2.171875 L 3.578125 0 L 2.875 0 L 2.875 -2.125 C 2.875 -2.289062 2.847656 -2.441406 2.796875 -2.578125 C 2.753906 -2.710938 2.679688 -2.816406 2.578125 -2.890625 C 2.472656 -2.972656 2.320312 -3.007812 2.125 -3 C 1.9375 -3 1.773438 -2.957031 1.640625 -2.875 C 1.503906 -2.800781 1.394531 -2.703125 1.3125 -2.578125 C 1.226562 -2.453125 1.1875 -2.3125 1.1875 -2.15625 L 1.1875 0 L 0.484375 0 L 0.484375 -3.5625 L 1.1875 -3.5625 L 1.1875 -3 C 1.289062 -3.164062 1.445312 -3.3125 1.65625 -3.4375 C 1.863281 -3.570312 2.097656 -3.640625 2.359375 -3.640625 Z M 2.359375 -3.640625 "/></g></g></g><g fill="#000000" fill-opacity="1"><g transform="translate(45.581534, 34.239722)"><g><path d="M 2.359375 -3.640625 C 2.671875 -3.640625 2.914062 -3.570312 3.09375 -3.4375 C 3.269531 -3.300781 3.394531 -3.125 3.46875 -2.90625 C 3.539062 -2.6875 3.578125 -2.441406 3.578125 -2.171875 L 3.578125 0 L 2.875 0 L 2.875 -2.125 C 2.875 -2.289062 2.847656 -2.441406 2.796875 -2.578125 C 2.753906 -2.710938 2.679688 -2.816406 2.578125 -2.890625 C 2.472656 -2.972656 2.320312 -3.007812 2.125 -3 C 1.9375 -3 1.773438 -2.957031 1.640625 -2.875 C 1.503906 -2.800781 1.394531 -2.703125 1.3125 -2.578125 C 1.226562 -2.453125 1.1875 -2.3125 1.1875 -2.15625 L 1.1875 0 L 0.484375 0 L 0.484375 -3.5625 L 1.1875 -3.5625 L 1.1875 -3 C 1.289062 -3.164062 1.445312 -3.3125 1.65625 -3.4375 C 1.863281 -3.570312 2.097656 -3.640625 2.359375 -3.640625 Z M 2.359375 -3.640625 "/></g></g></g><g fill="#000000" fill-opacity="1"><g transform="translate(49.83198, 34.239722)"><g><path d="M 3.546875 -0.46875 C 3.398438 -0.320312 3.195312 -0.195312 2.9375 -0.09375 C 2.6875 0.0078125 2.425781 0.0625 2.15625 0.0625 C 1.78125 0.0625 1.453125 -0.015625 1.171875 -0.171875 C 0.890625 -0.328125 0.664062 -0.539062 0.5 -0.8125 C 0.34375 -1.082031 0.265625 -1.394531 0.265625 -1.75 C 0.265625 -2.144531 0.347656 -2.484375 0.515625 -2.765625 C 0.679688 -3.046875 0.898438 -3.257812 1.171875 -3.40625 C 1.453125 -3.5625 1.757812 -3.640625 2.09375 -3.640625 C 2.382812 -3.640625 2.648438 -3.566406 2.890625 -3.421875 C 3.140625 -3.273438 3.335938 -3.070312 3.484375 -2.8125 C 3.628906 -2.550781 3.703125 -2.25 3.703125 -1.90625 L 3.703125 -1.609375 L 0.96875 -1.609375 C 1.007812 -1.285156 1.140625 -1.03125 1.359375 -0.84375 C 1.585938 -0.65625 1.875 -0.5625 2.21875 -0.5625 C 2.46875 -0.5625 2.664062 -0.609375 2.8125 -0.703125 C 2.96875 -0.796875 3.097656 -0.882812 3.203125 -0.96875 Z M 2.09375 -3 C 1.820312 -3 1.585938 -2.9375 1.390625 -2.8125 C 1.191406 -2.6875 1.0625 -2.472656 1 -2.171875 L 2.984375 -2.171875 L 2.984375 -2.21875 C 2.972656 -2.375 2.921875 -2.507812 2.828125 -2.625 C 2.742188 -2.738281 2.632812 -2.828125 2.5 -2.890625 C 2.375 -2.960938 2.238281 -3 2.09375 -3 Z M 2.09375 -3 "/></g></g></g><g fill="#000000" fill-opacity="1"><g transform="translate(54.021415, 34.239722)"><g><path d="M 0.9375 -1.78125 C 0.9375 -1.550781 0.988281 -1.34375 1.09375 -1.15625 C 1.195312 -0.96875 1.335938 -0.820312 1.515625 -0.71875 C 1.691406 -0.613281 1.878906 -0.5625 2.078125 -0.5625 C 2.304688 -0.5625 2.503906 -0.617188 2.671875 -0.734375 C 2.835938 -0.859375 2.972656 -0.984375 3.078125 -1.109375 L 3.453125 -0.625 C 3.367188 -0.507812 3.25 -0.394531 3.09375 -0.28125 C 2.945312 -0.175781 2.78125 -0.09375 2.59375 -0.03125 C 2.40625 0.03125 2.207031 0.0625 2 0.0625 C 1.675781 0.0625 1.378906 -0.015625 1.109375 -0.171875 C 0.847656 -0.335938 0.640625 -0.5625 0.484375 -0.84375 C 0.335938 -1.125 0.265625 -1.4375 0.265625 -1.78125 C 0.265625 -2.132812 0.335938 -2.445312 0.484375 -2.71875 C 0.640625 -3 0.847656 -3.222656 1.109375 -3.390625 C 1.378906 -3.554688 1.675781 -3.640625 2 -3.640625 C 2.332031 -3.640625 2.625 -3.570312 2.875 -3.4375 C 3.132812 -3.300781 3.328125 -3.128906 3.453125 -2.921875 L 3.078125 -2.4375 C 2.972656 -2.59375 2.820312 -2.722656 2.625 -2.828125 C 2.4375 -2.941406 2.25 -3 2.0625 -3 C 1.851562 -3 1.660156 -2.945312 1.484375 -2.84375 C 1.316406 -2.738281 1.179688 -2.59375 1.078125 -2.40625 C 0.984375 -2.226562 0.9375 -2.019531 0.9375 -1.78125 Z M 0.9375 -1.78125 "/></g></g></g><g fill="#000000" fill-opacity="1"><g transform="translate(57.865134, 34.239722)"><g><path d="M 1.625 0 L 0.921875 0 L 0.921875 -2.875 L 0.1875 -2.875 L 0.1875 -3.5625 L 0.921875 -3.5625 L 0.921875 -4.46875 L 1.625 -4.46875 L 1.625 -3.5625 L 2.453125 -3.5625 L 2.453125 -2.875 L 1.625 -2.875 Z M 1.625 0 "/></g></g></g><g fill="#000000" fill-opacity="1"><g transform="translate(60.685257, 34.239722)"><g><path d="M 0.765625 0.078125 C 0.609375 0.078125 0.492188 0.03125 0.421875 -0.0625 C 0.347656 -0.15625 0.3125 -0.28125 0.3125 -0.4375 C 0.3125 -0.5625 0.347656 -0.675781 0.421875 -0.78125 C 0.492188 -0.882812 0.609375 -0.9375 0.765625 -0.9375 C 0.929688 -0.9375 1.050781 -0.890625 1.125 -0.796875 C 1.195312 -0.710938 1.234375 -0.59375 1.234375 -0.4375 C 1.234375 -0.3125 1.195312 -0.191406 1.125 -0.078125 C 1.050781 0.0234375 0.929688 0.078125 0.765625 0.078125 Z M 0.765625 0.078125 "/></g></g></g><g fill="#000000" fill-opacity="1"><g transform="translate(62.447894, 34.239722)"><g/></g></g><g fill="#000000" fill-opacity="1"><g transform="translate(64.563022, 34.239722)"><g><path d="M 3.625 -0.703125 L 3.625 0 L 0.671875 0 L 0.671875 -4.75 L 1.390625 -4.75 L 1.390625 -0.703125 Z M 3.625 -0.703125 "/></g></g></g><g fill="#000000" fill-opacity="1"><g transform="translate(68.840583, 34.239722)"><g><path d="M 3.546875 -0.46875 C 3.398438 -0.320312 3.195312 -0.195312 2.9375 -0.09375 C 2.6875 0.0078125 2.425781 0.0625 2.15625 0.0625 C 1.78125 0.0625 1.453125 -0.015625 1.171875 -0.171875 C 0.890625 -0.328125 0.664062 -0.539062 0.5 -0.8125 C 0.34375 -1.082031 0.265625 -1.394531 0.265625 -1.75 C 0.265625 -2.144531 0.347656 -2.484375 0.515625 -2.765625 C 0.679688 -3.046875 0.898438 -3.257812 1.171875 -3.40625 C 1.453125 -3.5625 1.757812 -3.640625 2.09375 -3.640625 C 2.382812 -3.640625 2.648438 -3.566406 2.890625 -3.421875 C 3.140625 -3.273438 3.335938 -3.070312 3.484375 -2.8125 C 3.628906 -2.550781 3.703125 -2.25 3.703125 -1.90625 L 3.703125 -1.609375 L 0.96875 -1.609375 C 1.007812 -1.285156 1.140625 -1.03125 1.359375 -0.84375 C 1.585938 -0.65625 1.875 -0.5625 2.21875 -0.5625 C 2.46875 -0.5625 2.664062 -0.609375 2.8125 -0.703125 C 2.96875 -0.796875 3.097656 -0.882812 3.203125 -0.96875 Z M 2.09375 -3 C 1.820312 -3 1.585938 -2.9375 1.390625 -2.8125 C 1.191406 -2.6875 1.0625 -2.472656 1 -2.171875 L 2.984375 -2.171875 L 2.984375 -2.21875 C 2.972656 -2.375 2.921875 -2.507812 2.828125 -2.625 C 2.742188 -2.738281 2.632812 -2.828125 2.5 -2.890625 C 2.375 -2.960938 2.238281 -3 2.09375 -3 Z M 2.09375 -3 "/></g></g></g><g fill="#000000" fill-opacity="1"><g transform="translate(73.030018, 34.239722)"><g><path d="M 3.796875 -3.5625 L 3.796875 0 L 3.09375 0 L 3.09375 -0.546875 C 2.988281 -0.398438 2.828125 -0.257812 2.609375 -0.125 C 2.398438 0 2.15625 0.0625 1.875 0.0625 C 1.582031 0.0625 1.3125 -0.015625 1.0625 -0.171875 C 0.8125 -0.328125 0.613281 -0.546875 0.46875 -0.828125 C 0.320312 -1.109375 0.25 -1.429688 0.25 -1.796875 C 0.25 -2.148438 0.320312 -2.46875 0.46875 -2.75 C 0.625 -3.03125 0.832031 -3.25 1.09375 -3.40625 C 1.351562 -3.5625 1.65625 -3.640625 2 -3.640625 C 2.238281 -3.640625 2.453125 -3.582031 2.640625 -3.46875 C 2.828125 -3.363281 2.976562 -3.238281 3.09375 -3.09375 L 3.09375 -3.5625 Z M 2.046875 -0.578125 C 2.253906 -0.578125 2.441406 -0.628906 2.609375 -0.734375 C 2.773438 -0.835938 2.898438 -0.976562 2.984375 -1.15625 C 3.078125 -1.34375 3.125 -1.554688 3.125 -1.796875 C 3.125 -2.015625 3.078125 -2.210938 2.984375 -2.390625 C 2.898438 -2.578125 2.773438 -2.722656 2.609375 -2.828125 C 2.441406 -2.929688 2.253906 -2.984375 2.046875 -2.984375 C 1.835938 -2.984375 1.648438 -2.929688 1.484375 -2.828125 C 1.316406 -2.722656 1.1875 -2.582031 1.09375 -2.40625 C 1.007812 -2.226562 0.96875 -2.023438 0.96875 -1.796875 C 0.96875 -1.554688 1.007812 -1.34375 1.09375 -1.15625 C 1.1875 -0.976562 1.316406 -0.835938 1.484375 -0.734375 C 1.648438 -0.628906 1.835938 -0.578125 2.046875 -0.578125 Z M 2.046875 -0.578125 "/></g></g></g><g fill="#000000" fill-opacity="1"><g transform="translate(77.538053, 34.239722)"><g><path d="M 2.484375 -2.8125 C 2.441406 -2.832031 2.382812 -2.847656 2.3125 -2.859375 C 2.25 -2.878906 2.179688 -2.890625 2.109375 -2.890625 C 1.960938 -2.890625 1.816406 -2.851562 1.671875 -2.78125 C 1.535156 -2.707031 1.421875 -2.597656 1.328125 -2.453125 C 1.234375 -2.316406 1.1875 -2.15625 1.1875 -1.96875 L 1.1875 0 L 0.484375 0 L 0.484375 -3.5625 L 1.1875 -3.5625 L 1.1875 -2.890625 C 1.289062 -3.109375 1.441406 -3.285156 1.640625 -3.421875 C 1.847656 -3.566406 2.0625 -3.640625 2.28125 -3.640625 C 2.445312 -3.640625 2.578125 -3.613281 2.671875 -3.5625 Z M 2.484375 -2.8125 "/></g></g></g><g fill="#000000" fill-opacity="1"><g transform="translate(80.486975, 34.239722)"><g><path d="M 2.359375 -3.640625 C 2.671875 -3.640625 2.914062 -3.570312 3.09375 -3.4375 C 3.269531 -3.300781 3.394531 -3.125 3.46875 -2.90625 C 3.539062 -2.6875 3.578125 -2.441406 3.578125 -2.171875 L 3.578125 0 L 2.875 0 L 2.875 -2.125 C 2.875 -2.289062 2.847656 -2.441406 2.796875 -2.578125 C 2.753906 -2.710938 2.679688 -2.816406 2.578125 -2.890625 C 2.472656 -2.972656 2.320312 -3.007812 2.125 -3 C 1.9375 -3 1.773438 -2.957031 1.640625 -2.875 C 1.503906 -2.800781 1.394531 -2.703125 1.3125 -2.578125 C 1.226562 -2.453125 1.1875 -2.3125 1.1875 -2.15625 L 1.1875 0 L 0.484375 0 L 0.484375 -3.5625 L 1.1875 -3.5625 L 1.1875 -3 C 1.289062 -3.164062 1.445312 -3.3125 1.65625 -3.4375 C 1.863281 -3.570312 2.097656 -3.640625 2.359375 -3.640625 Z M 2.359375 -3.640625 "/></g></g></g><g fill="#000000" fill-opacity="1"><g transform="translate(84.737421, 34.239722)"><g><path d="M 0.765625 0.078125 C 0.609375 0.078125 0.492188 0.03125 0.421875 -0.0625 C 0.347656 -0.15625 0.3125 -0.28125 0.3125 -0.4375 C 0.3125 -0.5625 0.347656 -0.675781 0.421875 -0.78125 C 0.492188 -0.882812 0.609375 -0.9375 0.765625 -0.9375 C 0.929688 -0.9375 1.050781 -0.890625 1.125 -0.796875 C 1.195312 -0.710938 1.234375 -0.59375 1.234375 -0.4375 C 1.234375 -0.3125 1.195312 -0.191406 1.125 -0.078125 C 1.050781 0.0234375 0.929688 0.078125 0.765625 0.078125 Z M 0.765625 0.078125 "/></g></g></g><g fill="#000000" fill-opacity="1"><g transform="translate(86.500058, 34.239722)"><g/></g></g><g fill="#000000" fill-opacity="1"><g transform="translate(88.615185, 34.239722)"><g><path d="M 3.796875 0 L 3.34375 -1.1875 L 1.359375 -1.1875 L 0.921875 0 L 0.171875 0 L 2 -4.75 L 2.75 -4.75 L 4.578125 0 Z M 2 -2.828125 L 1.640625 -1.890625 L 3.078125 -1.890625 L 2.71875 -2.859375 C 2.65625 -3.015625 2.59375 -3.179688 2.53125 -3.359375 C 2.476562 -3.546875 2.421875 -3.734375 2.359375 -3.921875 C 2.296875 -3.734375 2.234375 -3.546875 2.171875 -3.359375 C 2.109375 -3.171875 2.050781 -2.992188 2 -2.828125 Z M 2 -2.828125 "/></g></g></g><g fill="#000000" fill-opacity="1"><g transform="translate(93.577402, 34.239722)"><g><path d="M 0.9375 -1.78125 C 0.9375 -1.550781 0.988281 -1.34375 1.09375 -1.15625 C 1.195312 -0.96875 1.335938 -0.820312 1.515625 -0.71875 C 1.691406 -0.613281 1.878906 -0.5625 2.078125 -0.5625 C 2.304688 -0.5625 2.503906 -0.617188 2.671875 -0.734375 C 2.835938 -0.859375 2.972656 -0.984375 3.078125 -1.109375 L 3.453125 -0.625 C 3.367188 -0.507812 3.25 -0.394531 3.09375 -0.28125 C 2.945312 -0.175781 2.78125 -0.09375 2.59375 -0.03125 C 2.40625 0.03125 2.207031 0.0625 2 0.0625 C 1.675781 0.0625 1.378906 -0.015625 1.109375 -0.171875 C 0.847656 -0.335938 0.640625 -0.5625 0.484375 -0.84375 C 0.335938 -1.125 0.265625 -1.4375 0.265625 -1.78125 C 0.265625 -2.132812 0.335938 -2.445312 0.484375 -2.71875 C 0.640625 -3 0.847656 -3.222656 1.109375 -3.390625 C 1.378906 -3.554688 1.675781 -3.640625 2 -3.640625 C 2.332031 -3.640625 2.625 -3.570312 2.875 -3.4375 C 3.132812 -3.300781 3.328125 -3.128906 3.453125 -2.921875 L 3.078125 -2.4375 C 2.972656 -2.59375 2.820312 -2.722656 2.625 -2.828125 C 2.4375 -2.941406 2.25 -3 2.0625 -3 C 1.851562 -3 1.660156 -2.945312 1.484375 -2.84375 C 1.316406 -2.738281 1.179688 -2.59375 1.078125 -2.40625 C 0.984375 -2.226562 0.9375 -2.019531 0.9375 -1.78125 Z M 0.9375 -1.78125 "/></g></g></g><g fill="#000000" fill-opacity="1"><g transform="translate(97.421122, 34.239722)"><g><path d="M 2.359375 -3.640625 C 2.671875 -3.640625 2.914062 -3.570312 3.09375 -3.4375 C 3.269531 -3.300781 3.394531 -3.125 3.46875 -2.90625 C 3.539062 -2.6875 3.578125 -2.441406 3.578125 -2.171875 L 3.578125 0 L 2.875 0 L 2.875 -2.125 C 2.875 -2.289062 2.847656 -2.441406 2.796875 -2.578125 C 2.753906 -2.710938 2.679688 -2.816406 2.578125 -2.890625 C 2.472656 -2.972656 2.320312 -3.007812 2.125 -3 C 1.9375 -3 1.773438 -2.957031 1.640625 -2.875 C 1.503906 -2.800781 1.394531 -2.703125 1.3125 -2.578125 C 1.226562 -2.453125 1.1875 -2.3125 1.1875 -2.15625 L 1.1875 0 L 0.484375 0 L 0.484375 -5.015625 L 1.1875 -5.015625 L 1.1875 -3 C 1.289062 -3.164062 1.445312 -3.3125 1.65625 -3.4375 C 1.863281 -3.570312 2.097656 -3.640625 2.359375 -3.640625 Z M 2.359375 -3.640625 "/></g></g></g><g fill="#000000" fill-opacity="1"><g transform="translate(101.671568, 34.239722)"><g><path d="M 0.953125 -4.328125 C 0.796875 -4.328125 0.675781 -4.367188 0.59375 -4.453125 C 0.519531 -4.535156 0.484375 -4.640625 0.484375 -4.765625 C 0.484375 -4.878906 0.519531 -4.984375 0.59375 -5.078125 C 0.675781 -5.171875 0.796875 -5.21875 0.953125 -5.21875 C 1.109375 -5.21875 1.222656 -5.175781 1.296875 -5.09375 C 1.378906 -5.007812 1.421875 -4.898438 1.421875 -4.765625 C 1.421875 -4.660156 1.378906 -4.5625 1.296875 -4.46875 C 1.222656 -4.375 1.109375 -4.328125 0.953125 -4.328125 Z M 1.3125 0 L 0.609375 0 L 0.609375 -3.5625 L 1.3125 -3.5625 Z M 1.3125 0 "/></g></g></g><g fill="#000000" fill-opacity="1"><g transform="translate(103.773138, 34.239722)"><g><path d="M 3.546875 -0.46875 C 3.398438 -0.320312 3.195312 -0.195312 2.9375 -0.09375 C 2.6875 0.0078125 2.425781 0.0625 2.15625 0.0625 C 1.78125 0.0625 1.453125 -0.015625 1.171875 -0.171875 C 0.890625 -0.328125 0.664062 -0.539062 0.5 -0.8125 C 0.34375 -1.082031 0.265625 -1.394531 0.265625 -1.75 C 0.265625 -2.144531 0.347656 -2.484375 0.515625 -2.765625 C 0.679688 -3.046875 0.898438 -3.257812 1.171875 -3.40625 C 1.453125 -3.5625 1.757812 -3.640625 2.09375 -3.640625 C 2.382812 -3.640625 2.648438 -3.566406 2.890625 -3.421875 C 3.140625 -3.273438 3.335938 -3.070312 3.484375 -2.8125 C 3.628906 -2.550781 3.703125 -2.25 3.703125 -1.90625 L 3.703125 -1.609375 L 0.96875 -1.609375 C 1.007812 -1.285156 1.140625 -1.03125 1.359375 -0.84375 C 1.585938 -0.65625 1.875 -0.5625 2.21875 -0.5625 C 2.46875 -0.5625 2.664062 -0.609375 2.8125 -0.703125 C 2.96875 -0.796875 3.097656 -0.882812 3.203125 -0.96875 Z M 2.09375 -3 C 1.820312 -3 1.585938 -2.9375 1.390625 -2.8125 C 1.191406 -2.6875 1.0625 -2.472656 1 -2.171875 L 2.984375 -2.171875 L 2.984375 -2.21875 C 2.972656 -2.375 2.921875 -2.507812 2.828125 -2.625 C 2.742188 -2.738281 2.632812 -2.828125 2.5 -2.890625 C 2.375 -2.960938 2.238281 -3 2.09375 -3 Z M 2.09375 -3 "/></g></g></g><g fill="#000000" fill-opacity="1"><g transform="translate(107.962573, 34.239722)"><g><path d="M 0.90625 -3.5625 L 1.9375 -1.015625 L 3.015625 -3.5625 L 3.734375 -3.5625 L 2.15625 0 L 1.65625 0 L 0.15625 -3.5625 Z M 0.90625 -3.5625 "/></g></g></g><g fill="#000000" fill-opacity="1"><g transform="translate(112.063882, 34.239722)"><g><path d="M 3.546875 -0.46875 C 3.398438 -0.320312 3.195312 -0.195312 2.9375 -0.09375 C 2.6875 0.0078125 2.425781 0.0625 2.15625 0.0625 C 1.78125 0.0625 1.453125 -0.015625 1.171875 -0.171875 C 0.890625 -0.328125 0.664062 -0.539062 0.5 -0.8125 C 0.34375 -1.082031 0.265625 -1.394531 0.265625 -1.75 C 0.265625 -2.144531 0.347656 -2.484375 0.515625 -2.765625 C 0.679688 -3.046875 0.898438 -3.257812 1.171875 -3.40625 C 1.453125 -3.5625 1.757812 -3.640625 2.09375 -3.640625 C 2.382812 -3.640625 2.648438 -3.566406 2.890625 -3.421875 C 3.140625 -3.273438 3.335938 -3.070312 3.484375 -2.8125 C 3.628906 -2.550781 3.703125 -2.25 3.703125 -1.90625 L 3.703125 -1.609375 L 0.96875 -1.609375 C 1.007812 -1.285156 1.140625 -1.03125 1.359375 -0.84375 C 1.585938 -0.65625 1.875 -0.5625 2.21875 -0.5625 C 2.46875 -0.5625 2.664062 -0.609375 2.8125 -0.703125 C 2.96875 -0.796875 3.097656 -0.882812 3.203125 -0.96875 Z M 2.09375 -3 C 1.820312 -3 1.585938 -2.9375 1.390625 -2.8125 C 1.191406 -2.6875 1.0625 -2.472656 1 -2.171875 L 2.984375 -2.171875 L 2.984375 -2.21875 C 2.972656 -2.375 2.921875 -2.507812 2.828125 -2.625 C 2.742188 -2.738281 2.632812 -2.828125 2.5 -2.890625 C 2.375 -2.960938 2.238281 -3 2.09375 -3 Z M 2.09375 -3 "/></g></g></g><g fill="#000000" fill-opacity="1"><g transform="translate(116.253317, 34.239722)"><g><path d="M 0.765625 0.078125 C 0.609375 0.078125 0.492188 0.03125 0.421875 -0.0625 C 0.347656 -0.15625 0.3125 -0.28125 0.3125 -0.4375 C 0.3125 -0.5625 0.347656 -0.675781 0.421875 -0.78125 C 0.492188 -0.882812 0.609375 -0.9375 0.765625 -0.9375 C 0.929688 -0.9375 1.050781 -0.890625 1.125 -0.796875 C 1.195312 -0.710938 1.234375 -0.59375 1.234375 -0.4375 C 1.234375 -0.3125 1.195312 -0.191406 1.125 -0.078125 C 1.050781 0.0234375 0.929688 0.078125 0.765625 0.078125 Z M 0.765625 0.078125 "/></g></g></g></g></g></g></svg>